<?xml version="1.0" encoding="UTF-8"?>
<svg version="1.1" xmlns="http://www.w3.org/2000/svg" width="586" height="426">
<path d="M0 0 C0.69144104 0.05290192 1.38288208 0.10580383 2.09527588 0.16030884 C25.65442252 2.00145146 44.57785378 9.25827623 60.12109375 27.37890625 C87.28128399 62.90422331 87.7424618 112.4693222 82.24462891 154.87109375 C78.3114665 181.95514879 70.72071426 208.38105602 49.37109375 226.79296875 C27.28343658 243.2768381 -1.9973783 242.91634951 -28.3125 243.3125 C-30.44662839 243.35080071 -32.58074333 243.38985879 -34.71484375 243.4296875 C-39.87228296 243.52432739 -45.02979365 243.60881987 -50.1875 243.6875 C-49.6925 244.30625 -49.1975 244.925 -48.6875 245.5625 C-47.1875 247.6875 -47.1875 247.6875 -47.1875 249.6875 C-46.63578125 249.92082031 -46.0840625 250.15414062 -45.515625 250.39453125 C-42.57494733 252.02769284 -40.39672749 254.08089207 -37.9375 256.375 C-34.66738038 259.40605509 -31.38538248 262.40978591 -28 265.3125 C-24.47069222 268.36978102 -21.19693017 271.63516743 -17.94921875 274.98828125 C-16.09440694 276.87839136 -16.09440694 276.87839136 -13.1875 278.6875 C-13.1875 279.3475 -13.1875 280.0075 -13.1875 280.6875 C-12.61515625 280.93113281 -12.0428125 281.17476563 -11.453125 281.42578125 C-8.78316462 282.91267298 -7.04920993 284.66833908 -4.9375 286.875 C-2.08835987 289.79408629 0.77620846 292.59738554 3.875 295.25 C7.28398701 298.17295322 10.4440894 301.2702176 13.5625 304.5 C15.47374676 306.35815657 17.4235011 308.08624575 19.4453125 309.8203125 C24.43953985 314.15697816 29.04893494 318.85190753 33.6875 323.5625 C35.3700885 325.27050524 37.05487133 326.97635251 38.7421875 328.6796875 C39.84409424 329.79899658 39.84409424 329.79899658 40.96826172 330.94091797 C42.70444424 332.75443877 42.70444424 332.75443877 44.8125 333.6875 C44.8125 334.3475 44.8125 335.0075 44.8125 335.6875 C45.34359375 335.90019531 45.8746875 336.11289062 46.421875 336.33203125 C49.73399197 338.20997993 52.32177972 340.76795398 55.0625 343.375 C56.22456519 344.46428382 57.3873235 345.55282869 58.55078125 346.640625 C59.11104004 347.16591797 59.67129883 347.69121094 60.24853516 348.23242188 C64.37411953 352.07077387 68.64492649 355.73826037 73 359.3125 C77.37705947 363.00868356 81.24882208 367.10252117 85.125 371.3125 C85.82238281 372.06789063 86.51976562 372.82328125 87.23828125 373.6015625 C88.8125 375.6875 88.8125 375.6875 88.8125 378.6875 C78.44146704 378.780518 68.07053467 378.85142558 57.69916821 378.89474869 C52.88238388 378.91555031 48.0658867 378.94373095 43.24926758 378.98925781 C38.59378075 379.03298214 33.93856868 379.05669284 29.28289223 379.06700897 C27.51401767 379.07435292 25.74515674 379.08869299 23.97640038 379.11042023 C13.08149305 379.23882952 3.42575949 379.14608679 -5.95703125 372.8203125 C-6.63121094 372.15773438 -7.30539062 371.49515625 -8 370.8125 C-9.2065625 369.64847656 -9.2065625 369.64847656 -10.4375 368.4609375 C-11.345 367.54570312 -12.2525 366.63046875 -13.1875 365.6875 C-14.37422496 364.51223772 -15.56177706 363.33781026 -16.75 362.1640625 C-19.17378462 359.76074106 -21.58691148 357.34759109 -23.98828125 354.921875 C-24.530896 354.37378174 -25.07351074 353.82568848 -25.63256836 353.26098633 C-27.07700452 351.799314 -28.51907003 350.33530002 -29.9609375 348.87109375 C-32.10828603 346.65981148 -32.10828603 346.65981148 -34.5 345 C-35.056875 344.566875 -35.61375 344.13375 -36.1875 343.6875 C-36.1875 343.0275 -36.1875 342.3675 -36.1875 341.6875 C-37.00166382 341.3622937 -37.00166382 341.3622937 -37.83227539 341.03051758 C-40.99358497 339.2278469 -43.3450722 336.77631634 -45.87109375 334.19921875 C-46.6771682 333.38889946 -46.6771682 333.38889946 -47.49952698 332.56221008 C-49.21278546 330.83779294 -50.91896776 329.10656371 -52.625 327.375 C-53.76841562 326.22154448 -54.91229125 325.06854477 -56.05664062 323.91601562 C-58.17010721 321.78626287 -60.28081074 319.65385165 -62.38842773 317.51831055 C-64.97880091 314.8985655 -67.58213027 312.2923101 -70.1875 309.6875 C-70.909375 308.945 -71.63125 308.2025 -72.375 307.4375 C-74.78711546 305.0789871 -77.24943643 302.83702822 -79.77075195 300.59765625 C-84.88785641 296.00158688 -89.80180032 291.23441109 -94.66796875 286.375 C-95.95360466 285.09435669 -95.95360466 285.09435669 -97.26521301 283.7878418 C-99.0605161 281.99756104 -100.85450405 280.20596055 -102.6472168 278.41308594 C-105.37332953 275.68916912 -108.10736057 272.97337034 -110.84179688 270.2578125 C-112.59684383 268.50569868 -114.35141736 266.75311048 -116.10546875 265 C-116.91292038 264.19973389 -117.72037201 263.39946777 -118.55229187 262.57495117 C-131.31980203 249.75629563 -142.18576945 235.56599305 -142.4375 216.875 C-142.36807159 208.64773368 -141.18980443 201.68980443 -135.1875 195.6875 C-124.64727535 187.15493719 -110.7926553 187.53842203 -97.92811966 187.64290047 C-95.67939848 187.66052592 -93.43075075 187.67066613 -91.18197632 187.67881775 C-84.7923081 187.70304507 -78.40273786 187.73831041 -72.01318359 187.78344727 C-36.13770332 189.93077014 -36.13770332 189.93077014 -4.671875 176.30078125 C10.0039735 160.99490895 8.45623752 134.53218329 8.08984375 114.96875 C7.59668029 99.28574284 5.92894096 86.2800939 -2.1875 72.6875 C-2.54585938 71.924375 -2.90421875 71.16125 -3.2734375 70.375 C-4.65202263 67.82991976 -6.48111283 67.666406 -9.1875 66.6875 C-10.4816706 65.87899429 -11.77300927 65.06594894 -13.0625 64.25 C-24.88859476 57.70160827 -39.1689406 58.23407981 -52.29296875 58.2109375 C-54.12740117 58.19684273 -55.96182362 58.18139292 -57.79623413 58.16468811 C-61.66339644 58.13197371 -65.5304724 58.10776366 -69.3977356 58.09078979 C-75.40908892 58.0642768 -81.42019586 58.01876439 -87.43139648 57.96899414 C-89.43934616 57.95251146 -91.44729599 57.93604719 -93.45524597 57.91960144 C-94.4449407 57.91147116 -95.43463543 57.90334087 -96.45432091 57.89496422 C-99.43770347 57.87115448 -102.42109446 57.84923106 -105.40449524 57.82783508 C-121.52267538 57.71009349 -137.63489986 57.46510321 -153.75 57.125 C-154.83735443 57.1025824 -155.92470886 57.08016479 -157.04501343 57.05706787 C-162.75930086 56.9391817 -168.4734547 56.81658172 -174.1875 56.6875 C-174.05903687 57.91098145 -174.05903687 57.91098145 -173.92797852 59.15917969 C-173.60453941 62.24550075 -173.2822525 65.33193957 -172.96069336 68.41845703 C-172.75525581 70.38713434 -172.54854307 72.35567844 -172.34179688 74.32421875 C-169.05986836 105.86275132 -166.5429469 139.26679338 -187.0625 165.875 C-196.16850785 176.82934091 -206.40636108 181.40881511 -220.1875 184.6875 C-220.1875 185.3475 -220.1875 186.0075 -220.1875 186.6875 C-219.18783203 186.83445313 -219.18783203 186.83445313 -218.16796875 186.984375 C-200.88868857 189.78772675 -187.05975308 197.78372536 -176.47265625 211.98828125 C-167.32732345 226.20659764 -164.87328122 242.06956061 -164.88671875 258.66015625 C-164.88243362 259.86328964 -164.8781485 261.06642303 -164.87373352 262.30601501 C-164.86802553 264.83803686 -164.86746368 267.37007509 -164.87182617 269.90209961 C-164.87497165 273.7156269 -164.85153074 277.52836592 -164.82617188 281.34179688 C-164.75727717 307.64114409 -166.91470453 335.57027792 -186.1875 355.6875 C-186.8475 355.6875 -187.5075 355.6875 -188.1875 355.6875 C-188.5278125 356.55568359 -188.5278125 356.55568359 -188.875 357.44140625 C-194.92354897 367.79234571 -210.69628112 372.78200778 -221.5 375.890625 C-246.51570668 381.29656161 -274.11547086 378.83780398 -299.56207824 378.8218255 C-304.92528186 378.81926441 -310.28848392 378.82164911 -315.65168762 378.82321167 C-324.63066928 378.82501956 -333.60964265 378.82266044 -342.58862305 378.81787109 C-352.96650224 378.81239951 -363.34436188 378.81421752 -373.72224063 378.8196975 C-382.66621893 378.8242306 -391.61019135 378.82487916 -400.55417043 378.82225883 C-405.88264081 378.82070119 -411.21110197 378.8204889 -416.53957176 378.82379532 C-421.53103624 378.82667795 -426.52247528 378.82469114 -431.513937 378.81890106 C-433.34575356 378.81757693 -435.17757225 378.81796172 -437.00938797 378.82016373 C-439.50504162 378.82288799 -442.0006132 378.81947876 -444.4962616 378.81448364 C-445.22376545 378.81671436 -445.9512693 378.81894509 -446.70081872 378.82124341 C-450.11412914 378.8079495 -452.84125834 378.52406041 -456.1875 377.6875 C-456.1875 295.1875 -456.1875 212.6875 -456.1875 127.6875 C-454.8675 128.3475 -453.5475 129.0075 -452.1875 129.6875 C-447.56184635 130.69673352 -444.36172049 131.14292382 -440.1875 128.6875 C-439.8575 127.6975 -439.5275 126.7075 -439.1875 125.6875 C-437.125 125 -437.125 125 -435.1875 124.6875 C-435.15011719 125.48414063 -435.11273438 126.28078125 -435.07421875 127.1015625 C-434.70793059 133.00526574 -434.40147206 137.65693503 -431.1875 142.6875 C-429.75166999 142.79586453 -428.3134798 142.87326167 -426.875 142.9375 C-426.07449219 142.98390625 -425.27398437 143.0303125 -424.44921875 143.078125 C-422.08754413 142.87572746 -422.08754413 142.87572746 -420.4375 141.125 C-418.76057298 137.85499231 -418.669357 135.09561124 -418.5 131.4375 C-418.43425781 130.17421875 -418.36851562 128.9109375 -418.30078125 127.609375 C-418.24470703 126.16304688 -418.24470703 126.16304688 -418.1875 124.6875 C-415.1875 124.6875 -415.1875 124.6875 -413.1875 126.5625 C-412.5275 127.26375 -411.8675 127.965 -411.1875 128.6875 C-407.3059112 131.27522586 -405.65323523 130.56469799 -401.1875 129.6875 C-400.1975 129.3575 -399.2075 129.0275 -398.1875 128.6875 C-398.1875 138.2575 -398.1875 147.8275 -398.1875 157.6875 C-384.90391607 157.71018372 -371.62034521 157.7284915 -358.33674622 157.73931217 C-352.16719843 157.74450819 -345.9976647 157.75154555 -339.828125 157.76293945 C-333.86290348 157.7738858 -327.8976954 157.77980149 -321.9324646 157.78237724 C-319.66815988 157.78421048 -317.40385581 157.78778985 -315.13955688 157.79323006 C-284.26107399 159.4331919 -284.26107399 159.4331919 -256.76171875 148.375 C-246.54586619 137.42401165 -244.61351952 120.48976008 -244.94140625 106.08203125 C-245.90948037 92.72875496 -247.14469261 77.82040409 -257.5625 68.1875 C-270.48218704 58.58921399 -286.22201304 57.5992147 -301.78125 57.37109375 C-302.96851685 57.35031265 -304.15578369 57.32953156 -305.37902832 57.30812073 C-309.14846352 57.24306145 -312.91796471 57.1839441 -316.6875 57.125 C-319.25261082 57.08177325 -321.81771512 57.03815767 -324.3828125 56.99414062 C-330.65097317 56.88742509 -336.91919857 56.78557996 -343.1875 56.6875 C-341.1875 54.6875 -341.1875 54.6875 -338.6875 54.3125 C-336.12073977 53.92932039 -336.12073977 53.92932039 -334.8125 52.0625 C-333.78310106 48.15078402 -334.38383261 44.29483478 -336.1875 40.6875 C-338.30596285 40.00020746 -338.30596285 40.00020746 -340.75 39.5625 C-342.9465625 39.129375 -342.9465625 39.129375 -345.1875 38.6875 C-345.1875 35.0575 -345.1875 31.4275 -345.1875 27.6875 C-343.929375 27.625625 -342.67125 27.56375 -341.375 27.5 C-338.14836796 27.08808953 -337.4444202 26.95999112 -335.125 24.5 C-333.96797948 21.02893843 -334.05510921 19.1601651 -335.1875 15.6875 C-338.01137522 12.75903681 -341.34149607 11.82381934 -345.1875 10.6875 C-344.84055208 7.83137516 -344.42095399 6.87920164 -342.15625 5.01953125 C-341.3415625 4.51808594 -340.526875 4.01664063 -339.6875 3.5 C-338.8728125 2.99082031 -338.058125 2.48164062 -337.21875 1.95703125 C-336.5484375 1.53808594 -335.878125 1.11914062 -335.1875 0.6875 C-334.8575 0.3575 -334.5275 0.0275 -334.1875 -0.3125 C-331.83261267 -0.42034754 -329.50652496 -0.46300219 -327.1506958 -0.46398926 C-326.40475528 -0.46822167 -325.65881477 -0.47245408 -324.89026999 -0.47681475 C-322.36857654 -0.48991783 -319.84691481 -0.49588465 -317.32519531 -0.50195312 C-315.52256577 -0.50989342 -313.71993816 -0.5182812 -311.91731262 -0.52708435 C-308.01269338 -0.54521497 -304.10807861 -0.56020842 -300.20343781 -0.57286072 C-293.96126211 -0.59318442 -287.71913184 -0.62085209 -281.47698975 -0.64953613 C-269.2557335 -0.70469523 -257.03445385 -0.75252376 -244.81316376 -0.79947662 C-227.38318749 -0.86672181 -209.95322961 -0.93787912 -192.52330208 -1.01679993 C-190.39098717 -1.02644324 -188.25867185 -1.03599506 -186.12635612 -1.04545593 C-157.15806895 -1.17450333 -128.19650157 -1.39646938 -99.23345947 -1.9822998 C-66.13274348 -2.6453875 -33.01520672 -2.71726875 0 0 Z M-397.1875 216.6875 C-398.06586178 245.13107055 -398.06586178 245.13107055 -398.31787109 273.58569336 C-398.31236504 276.31694777 -398.3179682 279.04804633 -398.32421875 281.77929688 C-398.32794961 290.64411308 -398.18502267 299.48520874 -397.7421875 308.33984375 C-397.70344513 309.13838272 -397.66470276 309.93692169 -397.62478638 310.75965881 C-397.44638309 313.9386489 -397.19936306 316.65191082 -396.1875 319.6875 C-381.69593589 319.73441485 -367.20438373 319.7694503 -352.71275902 319.79112434 C-345.98263369 319.80139606 -339.2525558 319.8153769 -332.52246094 319.83837891 C-326.01908494 319.86022084 -319.51575805 319.87209246 -313.01234818 319.87725449 C-310.53984429 319.88092994 -308.06734287 319.88810682 -305.59486008 319.89896011 C-275.7386077 320.79352153 -275.7386077 320.79352153 -250.34765625 307.1640625 C-238.95105653 294.09815975 -238.08182628 273.28053185 -239.1875 256.6875 C-240.62980232 245.66013343 -243.65857349 235.03853591 -252.03515625 227.28515625 C-264.73393637 217.85902001 -278.5365832 216.52147732 -293.76586914 216.57397461 C-294.88884399 216.57382858 -296.01181885 216.57368256 -297.16882324 216.5735321 C-300.8534544 216.57422468 -304.538034 216.58198625 -308.22265625 216.58984375 C-310.78812126 216.59171026 -313.35358663 216.59313306 -315.91905212 216.59413147 C-321.96426822 216.59754992 -328.00946244 216.60541869 -334.0546698 216.61548096 C-340.94229025 216.6266943 -347.82991163 216.63216566 -354.71753895 216.63717639 C-368.87420272 216.64760286 -383.03085036 216.66516961 -397.1875 216.6875 Z " fill="#F3501B" transform="translate(497.1875,47.3125)"/>
<path d="M0 0 C2.125 0.42578125 2.125 0.42578125 4.625 2.17578125 C6.89544716 7.09508343 6.95390614 12.06198867 7.125 17.42578125 C7.95 16.60078125 8.775 15.77578125 9.625 14.92578125 C12.13596743 12.84814862 13.91986464 11.98679465 17.1875 11.80078125 C21.125 12.42578125 21.125 12.42578125 24.125 14.55078125 C26.125 17.42578125 26.125 17.42578125 26.6875 20.36328125 C25.53884171 26.61708748 20.88606188 30.985084 16.5 35.30078125 C16.01015625 35.79835937 15.5203125 36.2959375 15.015625 36.80859375 C11.37856284 40.42578125 11.37856284 40.42578125 9.125 40.42578125 C6.98362846 45.73568628 6.70392937 50.65873532 6.5 56.30078125 C6.46132812 57.17992187 6.42265625 58.0590625 6.3828125 58.96484375 C6.28918966 61.11816918 6.20603541 63.27194539 6.125 65.42578125 C8.91960058 63.80578762 11.71015045 62.17894103 14.5 60.55078125 C15.2940625 60.09058594 16.088125 59.63039062 16.90625 59.15625 C18.04707031 58.48916016 18.04707031 58.48916016 19.2109375 57.80859375 C19.9126709 57.40012207 20.6144043 56.99165039 21.33740234 56.57080078 C24.7184688 54.40510812 25.5285765 52.58372615 26.52734375 48.8125 C26.77806641 47.89404297 27.02878906 46.97558594 27.28710938 46.02929688 C27.80086821 44.0972013 28.31389828 42.16491178 28.82617188 40.23242188 C30.39624935 34.48617924 31.81633815 29.7344431 36.125 25.42578125 C39.79705729 25.07936075 42.5085491 25.21136354 46 26.42578125 C48.58662314 28.86025008 48.8652401 30.80670413 49.1796875 34.29296875 C49.1164455 36.75940665 48.66910808 39.0233348 48.125 41.42578125 C48.76566406 41.05324219 49.40632813 40.68070313 50.06640625 40.296875 C54.22295718 38.02347084 57.20517306 36.45545309 62 36.30078125 C65.86587978 37.69249797 67.16456891 38.81858805 69.125 42.42578125 C69.6875 45.92578125 69.6875 45.92578125 69.125 49.42578125 C66.2415144 52.96834927 62.73465458 55.64119058 59.125 58.42578125 C59.69089844 58.69132812 60.25679687 58.956875 60.83984375 59.23046875 C61.57332031 59.58367188 62.30679688 59.936875 63.0625 60.30078125 C63.79339844 60.64882813 64.52429688 60.996875 65.27734375 61.35546875 C67.125 62.42578125 67.125 62.42578125 68.125 64.42578125 C68.81339635 71.42447747 68.81339635 71.42447747 66.0625 75.42578125 C62.32959098 77.96733633 60.59953615 77.75285394 56.125 77.42578125 C52.49161576 76.57994153 48.98021587 75.3742874 45.44140625 74.203125 C40.3808449 72.60168153 35.43612759 71.07103118 30.26806641 73.18554688 C28.35070817 74.19056174 26.5218329 75.27665418 24.6875 76.42578125 C24.05134766 76.80734375 23.41519531 77.18890625 22.75976562 77.58203125 C21.20655008 78.51629624 19.66455137 79.46916681 18.125 80.42578125 C22.54658277 85.17541694 28.70868265 89.73868774 35.375 90.05078125 C40.65958313 89.69535796 45.63548257 87.85774328 50.67578125 86.33203125 C56.28832369 84.85738816 61.52310028 84.00093141 66.75 86.86328125 C68.80593811 90.69480227 69.03182992 94.18087911 68.125 98.42578125 C65.25998558 101.61822589 62.14814127 103.04641853 58.125 104.42578125 C58.93904297 104.89757812 58.93904297 104.89757812 59.76953125 105.37890625 C67.52004352 110.01524872 67.52004352 110.01524872 69.125 113.42578125 C69.50404656 116.96354917 69.49806279 119.48068885 68.1875 122.80078125 C64.79619278 125.47272027 61.37179208 125.85112506 57.125 125.42578125 C53.87985087 124.09443802 51.01707709 122.40169207 48.125 120.42578125 C48.25519531 121.16183594 48.38539062 121.89789063 48.51953125 122.65625 C49.63945167 130.57942528 49.63945167 130.57942528 47.1875 134.61328125 C42.97424851 137.10683826 40.97632092 137.1188271 36.125 136.42578125 C32.67499996 133.66960041 31.35773982 131.09746275 30.0625 126.92578125 C29.55589844 125.34410156 29.55589844 125.34410156 29.0390625 123.73046875 C28.125 120.42578125 28.125 120.42578125 27.5234375 117.18359375 C26.50274424 111.72628711 25.78550015 108.22809364 21.0625 104.98828125 C19.44068442 104.08934728 17.79257208 103.23668902 16.125 102.42578125 C15.196875 101.94238281 14.26875 101.45898438 13.3125 100.9609375 C10.93388392 99.74122101 8.54233376 98.56631868 6.125 97.42578125 C6.21243729 100.30216643 6.3193735 103.17562687 6.4375 106.05078125 C6.46005859 106.85902344 6.48261719 107.66726562 6.50585938 108.5 C6.7842468 114.72575505 7.79617487 119.12902256 12.39453125 123.6640625 C13.23371094 124.34855469 14.07289062 125.03304687 14.9375 125.73828125 C20.46090122 130.54194204 25.19161923 135.38113123 26.875 142.67578125 C25.74842691 146.80654926 23.68796866 148.18243061 20.125 150.42578125 C17.0625 150.98828125 17.0625 150.98828125 14.125 150.42578125 C11.4375 148.48828125 11.4375 148.48828125 9.125 146.42578125 C8.135 146.09578125 7.145 145.76578125 6.125 145.42578125 C6.17720703 146.52986328 6.17720703 146.52986328 6.23046875 147.65625 C6.34819496 151.89999974 6.43781183 155.50574645 5.0625 159.55078125 C2.22055403 162.30105154 0.0158788 162.35869713 -3.875 162.42578125 C-6.625 161.92578125 -6.625 161.92578125 -8.875 160.42578125 C-11.64614073 155.47731566 -12.38277426 151.03715473 -12.875 145.42578125 C-13.74125 146.25078125 -14.6075 147.07578125 -15.5 147.92578125 C-17.87743173 149.89485412 -18.77940546 150.41017398 -21.9375 150.92578125 C-25.2286683 150.36558239 -27.20458728 149.40951641 -29.875 147.42578125 C-31.4297669 144.31624746 -31.16144437 141.86311364 -30.875 138.42578125 C-27.45051507 131.57681139 -21.13731524 126.54927457 -15.671875 121.31640625 C-11.48886549 116.91515276 -11.66172605 111.62626378 -11.70703125 105.890625 C-11.88144731 103.33117071 -12.31757641 100.92749833 -12.875 98.42578125 C-15.14967581 99.5225536 -17.41954524 100.62776547 -19.6875 101.73828125 C-20.33009766 102.04701172 -20.97269531 102.35574219 -21.63476562 102.67382812 C-27.44423696 105.46598403 -27.44423696 105.46598403 -30.71875 110.70654297 C-30.9353125 111.58068848 -31.151875 112.45483398 -31.375 113.35546875 C-31.6225 114.31582031 -31.87 115.27617188 -32.125 116.265625 C-32.3725 117.26722656 -32.62 118.26882812 -32.875 119.30078125 C-35.99906015 131.84583529 -35.99906015 131.84583529 -38.875 135.42578125 C-42.51282632 136.63839002 -45.05235999 136.82122677 -48.875 136.42578125 C-51.8125 134.36328125 -51.8125 134.36328125 -53.875 131.42578125 C-54.29303177 127.45447941 -53.89373881 124.24187663 -52.875 120.42578125 C-53.51566406 120.78671875 -54.15632813 121.14765625 -54.81640625 121.51953125 C-64.20927762 126.55892573 -64.20927762 126.55892573 -69.875 125.42578125 C-72.4395399 123.32154338 -73.59098916 121.75473765 -74.2890625 118.48828125 C-74.57735968 114.48246786 -74.21349741 112.8609922 -71.6875 109.61328125 C-69.16197716 107.6489857 -66.6847736 105.95108692 -63.875 104.42578125 C-64.42929688 104.09964844 -64.98359375 103.77351563 -65.5546875 103.4375 C-66.27914062 103.00050781 -67.00359375 102.56351562 -67.75 102.11328125 C-68.46929687 101.68402344 -69.18859375 101.25476563 -69.9296875 100.8125 C-71.875 99.42578125 -71.875 99.42578125 -73.875 96.42578125 C-73.62459234 91.83497417 -73.10270905 88.76156092 -69.875 85.42578125 C-62.59884819 83.67435356 -55.19541625 86.24966963 -48.33203125 88.55078125 C-41.58157566 90.25937114 -37.10075063 90.1001646 -31.1953125 86.58203125 C-30.29425781 86.0096875 -30.29425781 86.0096875 -29.375 85.42578125 C-28.42753906 84.8534375 -28.42753906 84.8534375 -27.4609375 84.26953125 C-25.92269734 83.33726449 -24.39740046 82.38369614 -22.875 81.42578125 C-25.09953631 79.92821759 -27.32816053 78.43797017 -29.56640625 76.9609375 C-31.23110095 75.85395778 -32.87322232 74.7127653 -34.5 73.55078125 C-40.54646306 70.68666717 -46.92144163 73.06928284 -52.9375 74.92578125 C-64.83076325 78.57765461 -64.83076325 78.57765461 -70.1875 76.55078125 C-71.875 75.42578125 -71.875 75.42578125 -72.875 73.42578125 C-73.27901525 69.40116779 -73.46228029 65.69822187 -71.75 61.98828125 C-69.31060806 59.95545463 -66.91921489 59.23757189 -63.875 58.42578125 C-64.596875 57.86890625 -65.31875 57.31203125 -66.0625 56.73828125 C-66.990625 55.97515625 -67.91875 55.21203125 -68.875 54.42578125 C-69.803125 53.68328125 -70.73125 52.94078125 -71.6875 52.17578125 C-74.22271301 48.98865633 -74.63836985 47.34475252 -74.3515625 43.3671875 C-73.47299129 39.78809003 -71.91111166 38.38660337 -68.875 36.42578125 C-62.68402699 36.32428989 -58.18259788 38.39085161 -52.875 41.42578125 C-53.205 40.43578125 -53.535 39.44578125 -53.875 38.42578125 C-54.14383331 34.79653161 -54.06854868 32.01933054 -52.9375 28.55078125 C-50.17388566 25.70342102 -47.99021809 25.37819518 -44.09375 25.17578125 C-41.875 25.42578125 -41.875 25.42578125 -39 27.30078125 C-34.01444596 34.63247837 -31.67175384 44.92654637 -30.6015625 53.65625 C-30.01153886 55.65930289 -30.01153886 55.65930289 -27.70703125 56.44921875 C-26.77246094 56.77148438 -25.83789062 57.09375 -24.875 57.42578125 C-22.75303567 58.60257953 -20.64919615 59.812522 -18.5625 61.05078125 C-17.49386719 61.68242188 -16.42523438 62.3140625 -15.32421875 62.96484375 C-14.11185547 63.68800781 -14.11185547 63.68800781 -12.875 64.42578125 C-11.38131136 61.43840397 -11.69062001 58.38617218 -11.6875 55.11328125 C-11.67332031 53.79714844 -11.65914062 52.48101562 -11.64453125 51.125 C-11.99216889 45.54512132 -13.53828787 42.36966153 -17.53515625 38.5078125 C-18.24607422 37.81107422 -18.95699219 37.11433594 -19.68945312 36.39648438 C-20.43130859 35.68427734 -21.17316406 34.97207031 -21.9375 34.23828125 C-23.40962118 32.80942033 -24.87977555 31.37852935 -26.34765625 29.9453125 C-27.00000244 29.31729736 -27.65234863 28.68928223 -28.32446289 28.04223633 C-30.62060898 25.6484742 -30.86794955 24.48806023 -31.25 21.11328125 C-30.875 17.42578125 -30.875 17.42578125 -28.875 14.48828125 C-25.51554949 12.17865902 -23.78817113 11.75095491 -19.8125 11.984375 C-16.82092202 12.66592402 -15.00523828 14.29554297 -12.875 16.42578125 C-12.77703125 15.6059375 -12.6790625 14.78609375 -12.578125 13.94140625 C-12.42859375 12.86375 -12.2790625 11.78609375 -12.125 10.67578125 C-11.98578125 9.6084375 -11.8465625 8.54109375 -11.703125 7.44140625 C-9.92051698 0.95002233 -6.2259884 -0.35840394 0 0 Z M-2.875 71.42578125 C-2.875 73.07578125 -2.875 74.72578125 -2.875 76.42578125 C-5.845 75.93078125 -5.845 75.93078125 -8.875 75.42578125 C-8.545 76.74578125 -8.215 78.06578125 -7.875 79.42578125 C-9.525 79.75578125 -11.175 80.08578125 -12.875 80.42578125 C-10.0325146 81.99851693 -10.0325146 81.99851693 -6.875 82.42578125 C-7.205 83.74578125 -7.535 85.06578125 -7.875 86.42578125 C-6.555 86.09578125 -5.235 85.76578125 -3.875 85.42578125 C-3.545 87.40578125 -3.215 89.38578125 -2.875 91.42578125 C-2.545 91.42578125 -2.215 91.42578125 -1.875 91.42578125 C-1.545 89.77578125 -1.215 88.12578125 -0.875 86.42578125 C0.445 86.09578125 1.765 85.76578125 3.125 85.42578125 C2.795 84.43578125 2.465 83.44578125 2.125 82.42578125 C3.775 82.09578125 5.425 81.76578125 7.125 81.42578125 C7.125 81.09578125 7.125 80.76578125 7.125 80.42578125 C4.65 79.93078125 4.65 79.93078125 2.125 79.42578125 C2.125 78.43578125 2.125 77.44578125 2.125 76.42578125 C1.135 76.42578125 0.145 76.42578125 -0.875 76.42578125 C-1.205 74.77578125 -1.535 73.12578125 -1.875 71.42578125 C-2.205 71.42578125 -2.535 71.42578125 -2.875 71.42578125 Z " fill="#2998D4" transform="translate(73.875,-0.42578125)"/>
<path d="M0 0 C0.06058594 0.80824219 0.12117188 1.61648437 0.18359375 2.44921875 C0.30927734 4.05216797 0.30927734 4.05216797 0.4375 5.6875 C0.51871094 6.74324219 0.59992187 7.79898438 0.68359375 8.88671875 C0.96451681 11.65086297 1.40156852 14.28945741 2 17 C-4.6641791 13.14179104 -4.6641791 13.14179104 -5.625 9.875 C-5.74875 9.25625 -5.8725 8.6375 -6 8 C-7.216875 8.20625 -8.43375 8.4125 -9.6875 8.625 C-13.81046638 9.32380786 -14.63158034 8.74736786 -19 7 C-19 87.52 -19 168.04 -19 251 C-14.71 251 -10.42 251 -6 251 C-4.68 251.33 -3.36 251.66 -2 252 C-2 252.66 -2 253.32 -2 254 C-4.41674224 254.02705308 -6.8331794 254.04686438 -9.25 254.0625 C-9.93191406 254.07087891 -10.61382812 254.07925781 -11.31640625 254.08789062 C-14.8026497 254.10481414 -17.58660119 253.8533497 -21 253 C-21 170.5 -21 88 -21 3 C-19.02 3.99 -19.02 3.99 -17 5 C-12.37434635 6.00923352 -9.17422049 6.45542382 -5 4 C-4.67 3.01 -4.34 2.02 -4 1 C-2 0 -2 0 0 0 Z " fill="#E06A45" transform="translate(62,172)"/>
<path d="M0 0 C1.51040357 0.04858595 3.02082039 0.09676164 4.53125 0.14453125 C8.10432952 0.2583752 11.67720625 0.37747442 15.25 0.5 C15.25 0.83 15.25 1.16 15.25 1.5 C-1.06243862 1.65287567 -17.37494585 1.79750867 -33.6875 1.9375 C-34.9713131 1.94852123 -36.25512619 1.95954247 -37.57784271 1.97089767 C-95.34282961 2.4640078 -153.10869019 2.77162064 -210.875 3.0625 C-212.52675617 3.07082422 -212.52675617 3.07082422 -214.21188116 3.07931662 C-242.72457095 3.22294186 -271.23727654 3.36322542 -299.75 3.5 C-300.41 4.82 -301.07 6.14 -301.75 7.5 C-303.07 7.5 -304.39 7.5 -305.75 7.5 C-305.42 8.49 -305.09 9.48 -304.75 10.5 C-303.1 10.17 -301.45 9.84 -299.75 9.5 C-299.75 12.47 -299.75 15.44 -299.75 18.5 C-300.61625 17.88125 -301.4825 17.2625 -302.375 16.625 C-305.50628186 14.65345216 -308.21384469 13.51033009 -311.75 12.5 C-311.40305208 9.64387516 -310.98345399 8.69170164 -308.71875 6.83203125 C-307.49671875 6.07986328 -307.49671875 6.07986328 -306.25 5.3125 C-305.4353125 4.80332031 -304.620625 4.29414062 -303.78125 3.76953125 C-303.1109375 3.35058594 -302.440625 2.93164062 -301.75 2.5 C-301.42 2.17 -301.09 1.84 -300.75 1.5 C-298.39511267 1.39215246 -296.06902496 1.34949781 -293.7131958 1.34851074 C-292.96725528 1.34427833 -292.22131477 1.34004592 -291.45276999 1.33568525 C-288.93107654 1.32258217 -286.40941481 1.31661535 -283.88769531 1.31054688 C-282.08506577 1.30260658 -280.28243816 1.2942188 -278.47981262 1.28541565 C-274.57519338 1.26728503 -270.67057861 1.25229158 -266.76593781 1.23963928 C-260.52376211 1.21931558 -254.28163184 1.19164791 -248.03948975 1.16296387 C-235.8182335 1.10780477 -223.59695385 1.05997624 -211.37566376 1.01302338 C-193.94568749 0.94577819 -176.51572961 0.87462088 -159.08580208 0.79570007 C-156.95348717 0.78605676 -154.82117185 0.77650494 -152.68885612 0.76704407 C-123.72056895 0.63799667 -94.75900157 0.41603062 -65.79595947 -0.1697998 C-43.85969051 -0.60944696 -21.93036032 -0.75569465 0 0 Z " fill="#D95C32" transform="translate(463.75,45.5)"/>
<path d="M0 0 C0.78656857 0.00085602 1.57313713 0.00171204 2.38354111 0.00259399 C12.15155115 0.0140118 21.91952402 0.03412772 31.6875 0.0625 C31.6875 0.7225 31.6875 1.3825 31.6875 2.0625 C32.36296875 2.05089844 33.0384375 2.03929687 33.734375 2.02734375 C34.62640625 2.01832031 35.5184375 2.00929688 36.4375 2 C37.76007813 1.98259766 37.76007813 1.98259766 39.109375 1.96484375 C41.4693838 2.05423802 43.43248524 2.39337179 45.6875 3.0625 C45.6875 3.7225 45.6875 4.3825 45.6875 5.0625 C44.88865796 4.99269456 44.08981592 4.92288912 43.26676655 4.85096836 C35.71672573 4.2255062 28.22904338 3.89955778 20.6550293 3.85717773 C18.96969086 3.84232834 18.96969086 3.84232834 17.25030518 3.82717896 C13.58746345 3.79593927 9.92460881 3.77095721 6.26171875 3.74609375 C3.70196726 3.72549169 1.14221892 3.70449443 -1.41752625 3.68312073 C-7.4342457 3.633826 -13.45098201 3.58847571 -19.46774596 3.54509836 C-26.3264706 3.49542622 -33.18515136 3.44062094 -40.04383337 3.38541877 C-54.13334783 3.2721324 -68.22290454 3.16518079 -82.3125 3.0625 C-82.3125 2.4025 -82.3125 1.7425 -82.3125 1.0625 C-54.87324627 0.23281287 -27.44985699 -0.03008616 0 0 Z " fill="#EA785D" transform="translate(182.3125,260.9375)"/>
<path d="M0 0 C-0.66 0 -1.32 0 -2 0 C-2 0.66 -2 1.32 -2 2 C-16.40965569 3.87000909 -30.58670956 4.28184381 -45.10546875 4.23046875 C-47.36843337 4.22927294 -49.63139849 4.22882463 -51.8943634 4.2290802 C-56.59635605 4.22752971 -61.29827101 4.21934607 -66.00024414 4.20581055 C-72.0131113 4.18871458 -78.02589444 4.18500015 -84.03878307 4.18575573 C-88.69455256 4.18548355 -93.35030385 4.17999632 -98.00606728 4.17275429 C-100.22394995 4.16958543 -102.44183466 4.16760441 -104.65971947 4.16686058 C-107.75259276 4.1646841 -110.84537815 4.15591481 -113.93823242 4.14526367 C-114.84274643 4.14571686 -115.74726044 4.14617004 -116.67918396 4.14663696 C-121.87357933 4.12057946 -126.85841491 3.74874154 -132 3 C-132 2.67 -132 2.34 -132 2 C-130.74513794 2.00222061 -129.49027588 2.00444122 -128.1973877 2.00672913 C-116.31172767 2.02709185 -104.42607123 2.04203499 -92.54039764 2.05181217 C-86.43138394 2.05700784 -80.32238444 2.06404454 -74.21337891 2.07543945 C-68.30651207 2.08638707 -62.3996588 2.09230175 -56.49278259 2.09487724 C-54.25080655 2.09671025 -52.00883116 2.10028917 -49.76686096 2.10573006 C-28.61520627 2.62138251 -28.61520627 2.62138251 -7.75 -0.125 C-4.24160028 -0.9436266 -3.2222352 -1.01229513 0 0 Z " fill="#DE5E31" transform="translate(232,203)"/>
<path d="M0 0 C1.98 0 3.96 0 6 0 C6 0.99 6 1.98 6 3 C6.66 3.33 7.32 3.66 8 4 C7.34 4.66 6.68 5.32 6 6 C6.33 6.66 6.66 7.32 7 8 C7.375 11.375 7.375 11.375 7 15 C4.5 17.4375 4.5 17.4375 2 19 C0 18 0 18 -1 15 C-1.66 16.32 -2.32 17.64 -3 19 C1.29 19.33 5.58 19.66 10 20 C10 20.33 10 20.66 10 21 C8.25181409 21.22304441 6.50129677 21.4278645 4.75 21.625 C3.28820312 21.79902344 3.28820312 21.79902344 1.796875 21.9765625 C-1.16407363 22.00137492 -2.56714398 21.64050383 -5 20 C-6.72394188 16.55211624 -6.36358102 12.77720283 -6 9 C-4.42954537 5.5973483 -3.33203065 5.1302081 0.1875 3.75 C1.115625 3.5025 2.04375 3.255 3 3 C2.01 2.01 1.02 1.02 0 0 Z " fill="#2A99D3" transform="translate(7,55)"/>
<path d="M0 0 C1.79700506 2.69550758 2.86961114 4.93048901 4 7.9375 C4.33 8.79214844 4.66 9.64679688 5 10.52734375 C7.77431349 20.16158083 8.28220875 29.66629179 8.1953125 39.640625 C8.1924826 40.88882019 8.18965271 42.13701538 8.18673706 43.42303467 C8.17564322 47.36545868 8.15055899 51.30764596 8.125 55.25 C8.11381319 57.94140047 8.10569517 60.63280727 8.09765625 63.32421875 C8.07573934 69.88289173 8.04237101 76.44142894 8 83 C7.67 83 7.34 83 7 83 C7 65.84 7 48.68 7 31 C6.01 30.67 5.02 30.34 4 30 C4.01160156 28.94039063 4.02320313 27.88078125 4.03515625 26.7890625 C4.04453476 25.40104342 4.05363489 24.01302245 4.0625 22.625 C4.07087891 21.92632812 4.07925781 21.22765625 4.08789062 20.5078125 C4.1835442 16.62704624 4.1835442 16.62704624 3 13 C2.01 12.67 1.02 12.34 0 12 C0 8.04 0 4.08 0 0 Z " fill="#E05C30" transform="translate(324,267)"/>
<path d="M0 0 C0.89589844 0.00322266 1.79179687 0.00644531 2.71484375 0.00976562 C4.12056641 0.02233398 4.12056641 0.02233398 5.5546875 0.03515625 C6.49957031 0.03966797 7.44445312 0.04417969 8.41796875 0.04882812 C10.75527137 0.06063268 13.09244811 0.07709866 15.4296875 0.09765625 C15.4296875 0.42765625 15.4296875 0.75765625 15.4296875 1.09765625 C1.38315061 2.98695653 -12.53405711 3.50947129 -26.6953125 3.72265625 C-28.82944089 3.76095696 -30.96355583 3.80001504 -33.09765625 3.83984375 C-38.25509546 3.93448364 -43.41260615 4.01897612 -48.5703125 4.09765625 C-47.9103125 5.74765625 -47.2503125 7.39765625 -46.5703125 9.09765625 C-49.5403125 8.60265625 -49.5403125 8.60265625 -52.5703125 8.09765625 C-52.2403125 6.11765625 -51.9103125 4.13765625 -51.5703125 2.09765625 C-51.0109903 2.08734879 -50.45166809 2.07704132 -49.87539673 2.06642151 C-44.0681767 1.95846815 -38.26111536 1.84386127 -32.45410156 1.7253418 C-30.28518994 1.68195706 -28.11624337 1.64028464 -25.94726562 1.6003418 C-22.83452815 1.54272486 -19.72196715 1.47900587 -16.609375 1.4140625 C-15.6353775 1.39735001 -14.66138 1.38063751 -13.65786743 1.36341858 C-12.75708466 1.34347336 -11.85630188 1.32352814 -10.92822266 1.30297852 C-9.73575424 1.27966209 -9.73575424 1.27966209 -8.51919556 1.25587463 C-5.46704725 1.00808862 -3.22228523 -0.02039421 0 0 Z " fill="#DB5C33" transform="translate(495.5703125,286.90234375)"/>
<path d="M0 0 C2.21462117 1.76004103 2.94503183 2.59035628 3.328125 5.4453125 C3.30234375 6.32960938 3.2765625 7.21390625 3.25 8.125 C3.22679687 9.45917969 3.22679687 9.45917969 3.203125 10.8203125 C3 13 3 13 2 14 C18.83 14.33 35.66 14.66 53 15 C53.495 15.99 53.495 15.99 54 17 C33.54 16.67 13.08 16.34 -8 16 C-6 14 -6 14 -3.5 13.625 C-0.90060914 13.27058093 -0.90060914 13.27058093 0.1796875 11.2578125 C1.13729778 8.62210421 1.03052542 7.00757284 0.625 4.25 C0.51414063 3.45078125 0.40328125 2.6515625 0.2890625 1.828125 C0.19367188 1.22484375 0.09828125 0.6215625 0 0 Z " fill="#DF643B" transform="translate(162,88)"/>
<path d="M0 0 C0.66 0 1.32 0 2 0 C2.14707138 7.48520708 1.80287997 14.75946156 0.875 22.1875 C0.74955811 23.20328125 0.62411621 24.2190625 0.49487305 25.265625 C-1.0489059 36.73621042 -3.92327954 47.85752474 -7 59 C-8.59328036 53.56620056 -7.15305399 48.43582595 -6 43 C-5.34 43 -4.68 43 -4 43 C-3.01974901 35.01795622 -2.49688008 27.02408469 -2 19 C-1.34 19 -0.68 19 0 19 C0 12.73 0 6.46 0 0 Z " fill="#DE5E35" transform="translate(579,176)"/>
<path d="M0 0 C0.33 0.66 0.66 1.32 1 2 C1.66 2.33 2.32 2.66 3 3 C1.8966898 4.58393026 0.79231456 6.16711868 -0.3125 7.75 C-0.92738281 8.63171875 -1.54226563 9.5134375 -2.17578125 10.421875 C-2.77777344 11.27265625 -3.37976563 12.1234375 -4 13 C-4.52980469 13.76828125 -5.05960937 14.5365625 -5.60546875 15.328125 C-6.06566406 15.87984375 -6.52585937 16.4315625 -7 17 C-7.66 17 -8.32 17 -9 17 C-9.2165625 17.57234375 -9.433125 18.1446875 -9.65625 18.734375 C-11.44414884 21.74885559 -13.65234274 23.22666458 -16.5 25.25 C-17.4796875 25.95640625 -18.459375 26.6628125 -19.46875 27.390625 C-22 29 -22 29 -24 29 C-24.33 28.01 -24.66 27.02 -25 26 C-21.535 25.505 -21.535 25.505 -18 25 C-17.67 23.68 -17.34 22.36 -17 21 C-15.68 21 -14.36 21 -13 21 C-12.67 19.68 -12.34 18.36 -12 17 C-11.34 17.33 -10.68 17.66 -10 18 C-10 17.01 -10 16.02 -10 15 C-9.01 15 -8.02 15 -7 15 C-7 13.68 -7 12.36 -7 11 C-5.68 10.67 -4.36 10.34 -3 10 C-3 7.69 -3 5.38 -3 3 C-2.01 3 -1.02 3 0 3 C0 2.01 0 1.02 0 0 Z " fill="#E5623B" transform="translate(318,386)"/>
<path d="M0 0 C3.35435922 1.38801071 5.11290303 2.88629 7 6 C7 6.99 7 7.98 7 9 C-5.54 9 -18.08 9 -31 9 C-27.40555817 6.60370545 -24.85138348 6.74218669 -20.70703125 6.8046875 C-20.00100266 6.8075174 -19.29497406 6.81034729 -18.56755066 6.81326294 C-16.31569367 6.82444536 -14.06423648 6.8495458 -11.8125 6.875 C-10.28451096 6.88503233 -8.75651567 6.89415774 -7.22851562 6.90234375 C-3.48552337 6.92437828 0.25717056 6.95889433 4 7 C2.6910428 3.87802522 2.6910428 3.87802522 0 2 C0 1.34 0 0.68 0 0 Z " fill="#EB9575" transform="translate(579,417)"/>
<path d="M0 0 C0.78246094 -0.02578125 1.56492187 -0.0515625 2.37109375 -0.078125 C4.5625 0.25 4.5625 0.25 6.34765625 1.578125 C7.5625 3.25 7.5625 3.25 7.5625 6.25 C0.8125 8.375 0.8125 8.375 -1.4375 7.25 C-1.7675 6.26 -2.0975 5.27 -2.4375 4.25 C-3.7575 4.25 -5.0775 4.25 -6.4375 4.25 C-7.0975 8.21 -7.7575 12.17 -8.4375 16.25 C-8.7675 16.25 -9.0975 16.25 -9.4375 16.25 C-9.75114748 10.29069781 -9.24617326 6.54326883 -6.4375 1.25 C-4.11063547 0.08656773 -2.59028587 0.05104012 0 0 Z " fill="#399BCF" transform="translate(71.4375,-0.25)"/>
<path d="M0 0 C5.19795208 1.93066792 10.30417226 3.89211586 13 9 C13.37904656 12.53776792 13.37306279 15.0549076 12.0625 18.375 C8.78119536 20.96027033 5.07394831 20.82918456 1 21 C3.66211372 19.62420173 6.06296616 18.62936439 9 18 C9 16.68 9 15.36 9 14 C9.66 13.67 10.32 13.34 11 13 C11 11.35 11 9.7 11 8 C10.01 8 9.02 8 8 8 C8 8.66 8 9.32 8 10 C7.34 10 6.68 10 6 10 C5.9071875 9.1028125 5.9071875 9.1028125 5.8125 8.1875 C4.68390926 5.14898647 2.7237223 4.60629777 0 3 C0 2.01 0 1.02 0 0 Z " fill="#3C99CA" transform="translate(130,104)"/>
<path d="M0 0 C0.33 0 0.66 0 1 0 C1 4.29 1 8.58 1 13 C0.34 13 -0.32 13 -1 13 C-1.07427838 16.34252724 -1.06546953 18.8035914 0 22 C-0.33 22.66 -0.66 23.32 -1 24 C-1.99 24 -2.98 24 -4 24 C-3.67 25.32 -3.34 26.64 -3 28 C-4.32 28 -5.64 28 -7 28 C-7.66 29.32 -8.32 30.64 -9 32 C-10.32 31.67 -11.64 31.34 -13 31 C-12.113125 30.0925 -11.22625 29.185 -10.3125 28.25 C-3.46887119 20.20914061 -1.21841896 10.25654173 0 0 Z " fill="#E65D32" transform="translate(504,194)"/>
<path d="M0 0 C2 3 2 3 3 5 C3.99 4.67 4.98 4.34 6 4 C7.32 4 8.64 4 10 4 C9.67 7.3 9.34 10.6 9 14 C6.69 13.67 4.38 13.34 2 13 C2.33 12.34 2.66 11.68 3 11 C3.99 11.33 4.98 11.66 6 12 C6 11.34 6 10.68 6 10 C4.824375 10.0928125 4.824375 10.0928125 3.625 10.1875 C2.325625 10.0946875 2.325625 10.0946875 1 10 C0.34 9.01 -0.32 8.02 -1 7 C-0.67 6.01 -0.34 5.02 0 4 C0 2.68 0 1.36 0 0 Z " fill="#2D9DD8" transform="translate(62,62)"/>
<path d="M0 0 C0.66 0 1.32 0 2 0 C-0.5313218 9.14238033 -7.49442947 16.41893473 -15 22 C-15.33 21.01 -15.66 20.02 -16 19 C-15.67 18.34 -15.34 17.68 -15 17 C-13.68 17 -12.36 17 -11 17 C-11 15.68 -11 14.36 -11 13 C-10.01 13 -9.02 13 -8 13 C-8.33 12.01 -8.66 11.02 -9 10 C-8.34 10 -7.68 10 -7 10 C-7.33 9.01 -7.66 8.02 -8 7 C-7.01 6.34 -6.02 5.68 -5 5 C-4.01 5.33 -3.02 5.66 -2 6 C-2 5.01 -2 4.02 -2 3 C-1.34 3 -0.68 3 0 3 C0 2.01 0 1.02 0 0 Z " fill="#E5643C" transform="translate(315,201)"/>
<path d="M0 0 C0.99 0.33 1.98 0.66 3 1 C4.74756196 6.24268589 4.19032049 11.8252426 4.1875 17.3125 C4.18814453 18.57803711 4.18878906 19.84357422 4.18945312 21.14746094 C4.14158203 29.60106109 3.74623624 37.70537788 2 46 C1.34 45.67 0.68 45.34 0 45 C0.144375 44.030625 0.28875 43.06125 0.4375 42.0625 C2.45933118 27.78196822 2.73625879 14.2676351 0 0 Z " fill="#DC6847" transform="translate(255,291)"/>
<path d="M0 0 C-0.3125 1.9375 -0.3125 1.9375 -1 4 C-1.99 4.33 -2.98 4.66 -4 5 C-4.12375 5.639375 -4.2475 6.27875 -4.375 6.9375 C-4.58125 7.618125 -4.7875 8.29875 -5 9 C-5.78375 9.28875 -6.5675 9.5775 -7.375 9.875 C-10.22964559 10.8247723 -10.22964559 10.8247723 -11.875 13.6875 C-13.19470232 17.57329017 -12.87274282 20.03298717 -12 24 C-9.03 24.33 -6.06 24.66 -3 25 C-3 25.66 -3 26.32 -3 27 C-7.65394781 27.32469403 -10.23358918 26.79790518 -14 24 C-15.5547669 20.89046621 -15.28644437 18.43733239 -15 15 C-12.56598494 10.13196989 -5.64737403 0 0 0 Z " fill="#509DC6" transform="translate(58,123)"/>
<path d="M0 0 C2.875 1 2.875 1 5 3 C6.05794503 7.68518513 6.31308336 11.33125915 5 16 C6.65 15.34 8.3 14.68 10 14 C8.25 16.0625 8.25 16.0625 6 18 C3.75 17.75 3.75 17.75 2 17 C2 15.68 2 14.36 2 13 C2.66 13 3.32 13 4 13 C3.67 10.03 3.34 7.06 3 4 C1.39602723 3.83147753 -0.2081869 3.66525114 -1.8125 3.5 C-2.70582031 3.4071875 -3.59914063 3.314375 -4.51953125 3.21875 C-7.08305099 2.95607599 -7.08305099 2.95607599 -10 3 C-7.28862457 -0.82782413 -4.40940337 -0.45614518 0 0 Z " fill="#4A9CC6" transform="translate(117,25)"/>
<path d="M0 0 C2.31258026 3.80424459 2.85249265 7.92984948 3.5625 12.25 C3.75102539 13.33861328 3.75102539 13.33861328 3.94335938 14.44921875 C5.16756665 21.6406353 6.1387339 28.68154533 6.0625 36 C6.05347656 37.134375 6.04445313 38.26875 6.03515625 39.4375 C6.01775391 40.7059375 6.01775391 40.7059375 6 42 C5.67 42 5.34 42 5 42 C4.91697632 41.14450562 4.91697632 41.14450562 4.83227539 40.27172852 C4.58026257 37.70151247 4.32147272 35.13202369 4.0625 32.5625 C3.97548828 31.66466797 3.88847656 30.76683594 3.79882812 29.84179688 C3.71181641 28.98779297 3.62480469 28.13378906 3.53515625 27.25390625 C3.456604 26.46314697 3.37805176 25.6723877 3.29711914 24.85766602 C3.18448501 22.98896652 3.18448501 22.98896652 2 22 C1.79103683 20.19188816 1.63219639 18.37783968 1.5 16.5625 C1.28580817 12.63565085 1.28580817 12.63565085 0 9 C-0.06950541 7.45976004 -0.08452357 5.91665012 -0.0625 4.375 C-0.05347656 3.55773437 -0.04445313 2.74046875 -0.03515625 1.8984375 C-0.02355469 1.27195312 -0.01195312 0.64546875 0 0 Z " fill="#E05E34" transform="translate(575,113)"/>
<path d="M0 0 C0.33 0 0.66 0 1 0 C1.14285714 7.42857143 1.14285714 7.42857143 0 11 C-3.67410785 12.17571451 -7.16929183 12.07366746 -11 12 C-11 14.64 -11 17.28 -11 20 C-8.03 20 -5.06 20 -2 20 C-2.33 20.99 -2.66 21.98 -3 23 C-7.455 22.01 -7.455 22.01 -12 21 C-12 17.37 -12 13.74 -12 10 C-10.741875 9.938125 -9.48375 9.87625 -8.1875 9.8125 C-4.58900674 9.37412453 -4.58900674 9.37412453 -2.0625 6.6875 C-1.17720064 4.44821339 -0.43786994 2.36449768 0 0 Z " fill="#DC5E36" transform="translate(164,65)"/>
<path d="M0 0 C0.66 0.99 1.32 1.98 2 3 C3.65 2.67 5.3 2.34 7 2 C7 4.97 7 7.94 7 11 C6.13375 10.38125 5.2675 9.7625 4.375 9.125 C1.24371814 7.15345216 -1.46384469 6.01033009 -5 5 C-4.67 3.68 -4.34 2.36 -4 1 C-2.68 0.67 -1.36 0.34 0 0 Z " fill="#E65D30" transform="translate(157,53)"/>
<path d="M0 0 C2 2 2 2 2.5 4.8125 C2 8 2 8 -0.625 10.875 C-4.30726892 13.19346562 -5.76236078 13.81146283 -10 13 C-12.625 11.0625 -12.625 11.0625 -15 9 C-17.18214568 8.22166466 -17.18214568 8.22166466 -19 8 C-19 7.34 -19 6.68 -19 6 C-15.56774177 6.40379509 -13.91695793 7.06007298 -11.0625 9.125 C-8.11580421 11.33872716 -8.11580421 11.33872716 -4.625 10.75 C-3.75875 10.5025 -2.8925 10.255 -2 10 C-2.33 9.01 -2.66 8.02 -3 7 C-2.505 6.5875 -2.01 6.175 -1.5 5.75 C0.43386092 3.87797662 0.43386092 3.87797662 0 0 Z " fill="#4DA1CC" transform="translate(98,137)"/>
<path d="M0 0 C5.02137798 1.0042756 5.86243419 1.39760962 9 5 C6.0280615 3.87548273 3.66559313 2.77706209 1 1 C1.19529297 2.10408203 1.19529297 2.10408203 1.39453125 3.23046875 C2.51445167 11.15364403 2.51445167 11.15364403 0.0625 15.1875 C-4.00807096 17.59661343 -6.33428261 17.39539978 -11 17 C-11 16.67 -11 16.34 -11 16 C-9.02 16 -7.04 16 -5 16 C-4.67 14.35 -4.34 12.7 -4 11 C-3.67 11.66 -3.34 12.32 -3 13 C-2.01 13 -1.02 13 0 13 C0 8.71 0 4.42 0 0 Z " fill="#4D9DC6" transform="translate(121,119)"/>
<path d="M0 0 C2.97 0.495 2.97 0.495 6 1 C6 2.32 6 3.64 6 5 C7.65 5 9.3 5 11 5 C11 6.65 11 8.3 11 10 C12.32 9.67 13.64 9.34 15 9 C15.66 11.64 16.32 14.28 17 17 C10.98173262 12.02838782 5.33662648 6.70170757 0 1 C0 0.67 0 0.34 0 0 Z " fill="#E75F38" transform="translate(401,331)"/>
<path d="M0 0 C0.33 0.66 0.66 1.32 1 2 C0.69465332 2.73887451 0.38930664 3.47774902 0.07470703 4.23901367 C-1.16215645 7.41658957 -1.22881755 9.77501846 -1.1953125 13.17578125 C-1.18886719 14.33271484 -1.18242187 15.48964844 -1.17578125 16.68164062 C-1.15064453 18.47891602 -1.15064453 18.47891602 -1.125 20.3125 C-1.11597656 21.53001953 -1.10695313 22.74753906 -1.09765625 24.00195312 C-1.07413037 27.00150274 -1.04125653 30.00065044 -1 33 C-5.35558632 26.46662052 -4.49941606 17.5843523 -4 10 C-2.29319372 2.29319372 -2.29319372 2.29319372 0 0 Z " fill="#DA623E" transform="translate(359,247)"/>
<path d="M0 0 C0.33 0 0.66 0 1 0 C2.67901457 10.43387625 3.24965165 20.445283 3 31 C2.67 31 2.34 31 2 31 C2 28.69 2 26.38 2 24 C1.34 24 0.68 24 0 24 C0 16.08 0 8.16 0 0 Z " fill="#DD7452" transform="translate(97,330)"/>
<path d="M0 0 C0.99 0 1.98 0 3 0 C3 0.66 3 1.32 3 2 C4.98 2.66 6.96 3.32 9 4 C9 4.66 9 5.32 9 6 C10.98 6 12.96 6 15 6 C15 7.32 15 8.64 15 10 C17.475 10.495 17.475 10.495 20 11 C17.46369751 11.93504239 16.24602532 12.07794862 13.6328125 11.25 C7.66802852 8.27689895 3.98801394 5.3523345 0 0 Z " fill="#E45D31" transform="translate(485,413)"/>
<path d="M0 0 C0.66 0 1.32 0 2 0 C2 7.26 2 14.52 2 22 C1.34 22 0.68 22 0 22 C0.01160156 21.03578125 0.02320312 20.0715625 0.03515625 19.078125 C0.04417969 17.81484375 0.05320312 16.5515625 0.0625 15.25 C0.07410156 13.99703125 0.08570312 12.7440625 0.09765625 11.453125 C0.02021027 8.71463499 -0.17219185 6.58119707 -1 4 C-3.31 4.33 -5.62 4.66 -8 5 C-8 4.34 -8 3.68 -8 3 C-6.865625 2.690625 -5.73125 2.38125 -4.5625 2.0625 C-1.21224901 1.37075469 -1.21224901 1.37075469 0 0 Z " fill="#E15A31" transform="translate(97,176)"/>
<path d="M0 0 C1.31611677 0.95336021 2.62778961 1.91285774 3.9375 2.875 C4.66839844 3.40867188 5.39929688 3.94234375 6.15234375 4.4921875 C8 6 8 6 9 8 C6.36 7.67 3.72 7.34 1 7 C1 9.31 1 11.62 1 14 C0.01 14.495 0.01 14.495 -1 15 C-1.02685412 12.68756208 -1.04632841 10.3750373 -1.0625 8.0625 C-1.07410156 6.77472656 -1.08570312 5.48695313 -1.09765625 4.16015625 C-1 1 -1 1 0 0 Z " fill="#DF7756" transform="translate(80,171)"/>
<path d="M0 0 C0.33 0.66 0.66 1.32 1 2 C0.51789063 2.54269531 0.03578125 3.08539063 -0.4609375 3.64453125 C-1.09257812 4.35996094 -1.72421875 5.07539063 -2.375 5.8125 C-3.00148437 6.52019531 -3.62796875 7.22789062 -4.2734375 7.95703125 C-6.140599 10.08803819 -6.140599 10.08803819 -8 13 C-8.886875 12.835 -9.77375 12.67 -10.6875 12.5 C-13.53596892 12.07004243 -16.13004802 11.91558965 -19 12 C-16.87987696 10.92769759 -14.75350675 9.88577142 -12.59765625 8.88671875 C-7.51043905 6.48028473 -3.67332692 4.28554807 0 0 Z " fill="#E86C48" transform="translate(247,353)"/>
<path d="M0 0 C3.3125 0.625 3.3125 0.625 7 2 C8.6875 5 8.6875 5 10 8 C12.05093145 9.40466953 12.05093145 9.40466953 14 10 C14 10.99 14 11.98 14 13 C15.32 13.66 16.64 14.32 18 15 C17.67 16.32 17.34 17.64 17 19 C16.61070313 18.53851563 16.22140625 18.07703125 15.8203125 17.6015625 C11.42831754 12.48094165 6.76838956 7.71579011 1.94140625 3.00390625 C0 1 0 1 0 0 Z " fill="#479BC7" transform="translate(45,26)"/>
<path d="M0 0 C0 0.33 0 0.66 0 1 C-2.31 1.33 -4.62 1.66 -7 2 C-7.33 3.65 -7.66 5.3 -8 7 C-7.34 7 -6.68 7 -6 7 C-6 7.99 -6 8.98 -6 10 C-6.99 9.67 -7.98 9.34 -9 9 C-9.33 10.32 -9.66 11.64 -10 13 C-10.66 13 -11.32 13 -12 13 C-12.29201904 8.03567635 -12.14707573 4.96298426 -9 1 C-5.8035914 -0.06546953 -3.34252724 -0.07427838 0 0 Z " fill="#469DCA" transform="translate(32,25)"/>
<path d="M0 0 C2.31 0.33 4.62 0.66 7 1 C6.67 1.99 6.34 2.98 6 4 C6.66 4 7.32 4 8 4 C8 4.66 8 5.32 8 6 C7.34 6 6.68 6 6 6 C6 8.97 6 11.94 6 15 C3 12 3 12 2.75 8.5625 C2.94038861 5.84946236 3.17764356 3.56986388 4 1 C2.02 1.99 0.04 2.98 -2 4 C-2.33 3.34 -2.66 2.68 -3 2 C-2.01 2 -1.02 2 0 2 C0 1.34 0 0.68 0 0 Z " fill="#469ECC" transform="translate(17,119)"/>
<path d="M0 0 C3.31562557 0.55260426 6.15062207 1.16825705 9 3 C9.33 3.99 9.66 4.98 10 6 C8.9790625 5.505 8.9790625 5.505 7.9375 5 C1.55404533 2.82690905 -3.62592261 4.29632389 -9.765625 6.44140625 C-12 7 -12 7 -15 6 C-13.35 5.67 -11.7 5.34 -10 5 C-10 4.34 -10 3.68 -10 3 C-6.7 2.67 -3.4 2.34 0 2 C0 1.34 0 0.68 0 0 Z " fill="#4298C8" transform="translate(32,68)"/>
<path d="M0 0 C0.99 0.33 1.98 0.66 3 1 C3.9140625 4.125 3.9140625 4.125 4.625 8 C5.08625139 12.32655949 5.08625139 12.32655949 7 16 C7.07205511 17.68608966 7.08386068 19.37500659 7.0625 21.0625 C7.05347656 21.98160156 7.04445313 22.90070313 7.03515625 23.84765625 C7.02355469 24.55792969 7.01195312 25.26820313 7 26 C6.34 26 5.68 26 5 26 C4.91959473 25.42556152 4.83918945 24.85112305 4.75634766 24.25927734 C4.38502141 21.6303299 4.00508384 19.002695 3.625 16.375 C3.49867188 15.47136719 3.37234375 14.56773437 3.2421875 13.63671875 C2.54989229 8.89449656 1.72038021 4.50290819 0 0 Z " fill="#DE633B" transform="translate(500,128)"/>
<path d="M0 0 C3 3 3 3 3.5 6.375 C2.87053247 10.93863956 1.59199773 12.20622399 -2 15 C-4.8125 16.3125 -4.8125 16.3125 -7 17 C-7 16.01 -7 15.02 -7 14 C-5.02 13.67 -3.04 13.34 -1 13 C-1.33 12.01 -1.66 11.02 -2 10 C-1.34 9.67 -0.68 9.34 0 9 C0 6.03 0 3.06 0 0 Z " fill="#49A0CA" transform="translate(140,39)"/>
<path d="M0 0 C0 2.31 0 4.62 0 7 C4.29 7.33 8.58 7.66 13 8 C13 8.33 13 8.66 13 9 C11.25181409 9.22304441 9.50129677 9.4278645 7.75 9.625 C6.77546875 9.74101563 5.8009375 9.85703125 4.796875 9.9765625 C1.81816478 10.00152376 0.38573456 9.76721079 -2 8 C-2.75 4.375 -2.75 4.375 -3 1 C-1 0 -1 0 0 0 Z " fill="#56A5D1" transform="translate(4,67)"/>
<path d="M0 0 C3.66415876 2.06312314 6.70548128 4.35872176 9.8125 7.1875 C10.60269531 7.90292969 11.39289063 8.61835938 12.20703125 9.35546875 C12.79871094 9.89816406 13.39039063 10.44085938 14 11 C13.34 11.66 12.68 12.32 12 13 C11.443125 12.360625 10.88625 11.72125 10.3125 11.0625 C7.77933439 8.80319013 6.31658576 8.36850953 3 8 C3.33 6.68 3.66 5.36 4 4 C2.68 4 1.36 4 0 4 C0 2.68 0 1.36 0 0 Z " fill="#ED623C" transform="translate(455,301)"/>
<path d="M0 0 C3.96 0 7.92 0 12 0 C12 0.66 12 1.32 12 2 C12.66 2.33 13.32 2.66 14 3 C13.67 3.66 13.34 4.32 13 5 C13.99 5 14.98 5 16 5 C15.67 5.99 15.34 6.98 15 8 C13.06126858 7.04416032 11.1240567 6.08523808 9.1875 5.125 C8.10855469 4.59132813 7.02960938 4.05765625 5.91796875 3.5078125 C3 2 3 2 0 0 Z " fill="#E76C46" transform="translate(228,266)"/>
<path d="M0 0 C1.32 0.66 2.64 1.32 4 2 C2.68 2.33 1.36 2.66 0 3 C0.33 4.65 0.66 6.3 1 8 C3.31 8.66 5.62 9.32 8 10 C6.02 10.99 6.02 10.99 4 12 C-1.75 8.375 -1.75 8.375 -4 5 C-3.625 2.8125 -3.625 2.8125 -3 1 C-3 1.66 -3 2.32 -3 3 C-2.34 3 -1.68 3 -1 3 C-0.67 2.01 -0.34 1.02 0 0 Z " fill="#3A97C9" transform="translate(4,91)"/>
<path d="M0 0 C1.98 0 3.96 0 6 0 C5.67 0.66 5.34 1.32 5 2 C5.66 2.33 6.32 2.66 7 3 C6.1875 6.4375 6.1875 6.4375 5 10 C4.01 10.33 3.02 10.66 2 11 C1.67 9.68 1.34 8.36 1 7 C1.99 7 2.98 7 4 7 C4 6.34 4 5.68 4 5 C3.01 5 2.02 5 1 5 C0.67 3.35 0.34 1.7 0 0 Z " fill="#429FD2" transform="translate(60,79)"/>
<path d="M0 0 C2.31 0 4.62 0 7 0 C5.68 1.65 4.36 3.3 3 5 C4.32 6.32 5.64 7.64 7 9 C5.02 9.33 3.04 9.66 1 10 C0.67 9.34 0.34 8.68 0 8 C0.66 8 1.32 8 2 8 C2 7.34 2 6.68 2 6 C1.34 6 0.68 6 0 6 C0 4.02 0 2.04 0 0 Z " fill="#429DCC" transform="translate(89,76)"/>
<path d="M0 0 C3.06630664 0.8974556 4.73038808 1.73038808 7 4 C3.66666667 5.33333333 0.33333333 6.66666667 -3 8 C-3.1875 5.125 -3.1875 5.125 -3 2 C-2.01 1.34 -1.02 0.68 0 0 Z " fill="#4AA4D4" transform="translate(73,85)"/>
<path d="M0 0 C2.33944736 0.28730055 4.6739143 0.61936779 7 1 C6.07038578 2.15224028 5.1309875 3.29659176 4.1875 4.4375 C3.40439453 5.39462891 3.40439453 5.39462891 2.60546875 6.37109375 C1 8 1 8 -2 9 C-1.125 1.125 -1.125 1.125 0 0 Z " fill="#3E9ED0" transform="translate(84,32)"/>
<path d="M0 0 C3.0780003 2.77020027 4.80482008 5.01606693 6 9 C6 10.32 6 11.64 6 13 C4.68 12.67 3.36 12.34 2 12 C1.33333333 8 0.66666667 4 0 0 Z " fill="#3C9BCA" transform="translate(33,26)"/>
<path d="M0 0 C1.95703125 0.71484375 1.95703125 0.71484375 4 2 C4.57421875 4.12890625 4.57421875 4.12890625 4.6875 6.5625 C4.62268451 9.58093901 4.62268451 9.58093901 6 12 C6.14115161 14.67058851 6.04247107 17.32432238 6 20 C4.21403811 17.32105716 3.60830822 15.9968331 2.9296875 12.98828125 C2.75566406 12.23095703 2.58164063 11.47363281 2.40234375 10.69335938 C2.14130859 9.51483398 2.14130859 9.51483398 1.875 8.3125 C1.60236328 7.11657227 1.60236328 7.11657227 1.32421875 5.89648438 C0.87726573 3.93224349 0.43789584 1.96627986 0 0 Z " fill="#4B9ECB" transform="translate(99,107)"/>
<path d="M0 0 C1.98 0 3.96 0 6 0 C6 0.99 6 1.98 6 3 C6.66 3.33 7.32 3.66 8 4 C6.375 6.0625 6.375 6.0625 4 8 C0.75 7.75 0.75 7.75 -2 7 C0 4 0 4 3 2 C2.01 1.34 1.02 0.68 0 0 Z " fill="#3D9DD1" transform="translate(7,55)"/>
<path d="M0 0 C-0.66 0 -1.32 0 -2 0 C-2 0.66 -2 1.32 -2 2 C-11.01814321 3.14516104 -19.9280648 3.09471858 -29 3 C-29 2.67 -29 2.34 -29 2 C-27.42412109 1.92652344 -27.42412109 1.92652344 -25.81640625 1.8515625 C-16.70895413 1.44580047 -16.70895413 1.44580047 -7.75 -0.125 C-4.24160028 -0.9436266 -3.2222352 -1.01229513 0 0 Z " fill="#DF6A45" transform="translate(232,203)"/>
<path d="M0 0 C2.24606427 1.77444972 2.95081002 2.58352485 3.29296875 5.48046875 C3.25816406 6.37378906 3.22335938 7.26710938 3.1875 8.1875 C3.16042969 9.08855469 3.13335937 9.98960938 3.10546875 10.91796875 C3.07066406 11.60503906 3.03585938 12.29210937 3 13 C-0.85756507 15.15305957 -3.55129785 16.39253254 -8 16 C-6 14 -6 14 -3.5 13.625 C-0.90060914 13.27058093 -0.90060914 13.27058093 0.1796875 11.2578125 C1.13729778 8.62210421 1.03052542 7.00757284 0.625 4.25 C0.51414063 3.45078125 0.40328125 2.6515625 0.2890625 1.828125 C0.19367188 1.22484375 0.09828125 0.6215625 0 0 Z " fill="#DF6D4B" transform="translate(162,88)"/>
<path d="M0 0 C0.33 0 0.66 0 1 0 C1.29354096 3.05282597 1.4251429 5.95576688 1 9 C-1.66012492 11.95569436 -4.05946397 13.41621688 -8 14 C-6.75023244 10.34683329 -6.32901247 9.21934164 -3 7 C-2.01 7.33 -1.02 7.66 0 8 C0 5.36 0 2.72 0 0 Z " fill="#469CCD" transform="translate(141,89)"/>
<path d="M0 0 C3.3 0.33 6.6 0.66 10 1 C4.77468437 4.48354375 -0.8131337 5.30934332 -7 5 C-6.67 4.34 -6.34 3.68 -6 3 C-2.9375 2.375 -2.9375 2.375 0 2 C0 1.34 0 0.68 0 0 Z " fill="#E36238" transform="translate(518,282)"/>
<path d="M0 0 C5.625 1.125 5.625 1.125 8 4 C5.69 3.34 3.38 2.68 1 2 C1 8.6 1 15.2 1 22 C0.67 22 0.34 22 0 22 C0 14.74 0 7.48 0 0 Z " fill="#4095C1" transform="translate(79,95)"/>
<path d="M0 0 C0 0.99 0 1.98 0 3 C-0.66 3 -1.32 3 -2 3 C-2 3.66 -2 4.32 -2 5 C-8.14778871 6.6277833 -13.64012196 7.20190089 -20 7 C-20 6.67 -20 6.34 -20 6 C-19.05898438 5.81824219 -18.11796875 5.63648438 -17.1484375 5.44921875 C-15.90320313 5.19785156 -14.65796875 4.94648438 -13.375 4.6875 C-12.14523437 4.44386719 -10.91546875 4.20023438 -9.6484375 3.94921875 C-6.09733532 3.02532386 -3.20639411 1.7610503 0 0 Z " fill="#E06339" transform="translate(487,228)"/>
<path d="M0 0 C-2.5843218 2.5843218 -4.89375577 3.10401163 -8.375 4.1875 C-9.51710938 4.55230469 -10.65921875 4.91710937 -11.8359375 5.29296875 C-14.81474653 5.95860385 -16.20871903 6.07938697 -19 5 C-18.07767578 4.70996094 -18.07767578 4.70996094 -17.13671875 4.4140625 C-16.32847656 4.15367187 -15.52023437 3.89328125 -14.6875 3.625 C-13.88699219 3.36976563 -13.08648437 3.11453125 -12.26171875 2.8515625 C-4.26101322 -0.16079295 -4.26101322 -0.16079295 0 0 Z " fill="#E1653F" transform="translate(291,417)"/>
<path d="M0 0 C2.97 0.495 2.97 0.495 6 1 C6.33 2.65 6.66 4.3 7 6 C7.99 5.67 8.98 5.34 10 5 C10.33 6.98 10.66 8.96 11 11 C3.07765152 4.32386364 3.07765152 4.32386364 0 1 C0 0.67 0 0.34 0 0 Z " fill="#E0613B" transform="translate(429,358)"/>
<path d="M0 0 C1.65 0 3.3 0 5 0 C4.34 1.98 3.68 3.96 3 6 C2.34 6 1.68 6 1 6 C0.67 6.66 0.34 7.32 0 8 C-0.33 7.34 -0.66 6.68 -1 6 C-0.67 5.34 -0.34 4.68 0 4 C-0.99 4.33 -1.98 4.66 -3 5 C-3.33 4.01 -3.66 3.02 -4 2 C-2.68 2 -1.36 2 0 2 C0 1.34 0 0.68 0 0 Z " fill="#4DA4D4" transform="translate(76,72)"/>
<path d="M0 0 C4.29 0 8.58 0 13 0 C13 0.33 13 0.66 13 1 C9.7 1.33 6.4 1.66 3 2 C3.66 3.65 4.32 5.3 5 7 C2.03 6.505 2.03 6.505 -1 6 C-0.67 4.02 -0.34 2.04 0 0 Z " fill="#E75E36" transform="translate(444,289)"/>
<path d="M0 0 C0.66 0.33 1.32 0.66 2 1 C2.08886184 4.19902639 1.91058531 6.92677456 1 10 C-1.31 9.34 -3.62 8.68 -6 8 C-6 7.67 -6 7.34 -6 7 C-4.35 7 -2.7 7 -1 7 C-1.20625 6.401875 -1.4125 5.80375 -1.625 5.1875 C-2 3 -2 3 0 0 Z " fill="#3397CB" transform="translate(71,152)"/>
<path d="M0 0 C3.80635497 3.20760251 7.54563567 6.40746109 11 10 C10.01 10.495 10.01 10.495 9 11 C9 10.34 9 9.68 9 9 C6.03 8.505 6.03 8.505 3 8 C2.67 6.35 2.34 4.7 2 3 C1.01 2.67 0.02 2.34 -1 2 C-0.67 1.34 -0.34 0.68 0 0 Z " fill="#E06437" transform="translate(489,332)"/>
<path d="M0 0 C0.66 0 1.32 0 2 0 C0.75297849 6.35450323 -0.57364259 12.68327435 -2 19 C-3.30574977 15.26665911 -2.7601248 12.22925049 -2.125 8.375 C-1.94195312 7.22773437 -1.75890625 6.08046875 -1.5703125 4.8984375 C-1 2 -1 2 0 0 Z " fill="#55A3CD" transform="translate(41,108)"/>
<path d="M0 0 C0.99 0.33 1.98 0.66 3 1 C-2 4 -7 7 -12 10 C-11.8125 8.16796875 -11.8125 8.16796875 -11 6 C-8.75 4.55078125 -8.75 4.55078125 -6 3.3125 C-2.7706539 1.99958037 -2.7706539 1.99958037 0 0 Z " fill="#52A1CA" transform="translate(56,97)"/>
<path d="M0 0 C1.32 0 2.64 0 4 0 C4.33 0.66 4.66 1.32 5 2 C6.89533342 2.46523063 6.89533342 2.46523063 9.0625 2.625 C10.361875 2.74875 11.66125 2.8725 13 3 C9.30513897 5.46324069 7.36706908 5.38991688 3 5 C1.0625 3.625 1.0625 3.625 0 2 C0 1.34 0 0.68 0 0 Z " fill="#499EC7" transform="translate(1,120)"/>
<path d="M0 0 C0.66 0.33 1.32 0.66 2 1 C0.55172414 5.5862069 0.55172414 5.5862069 -1.75 7.3125 C-4.57109421 8.17450101 -7.06759551 8.13329111 -10 8 C-7.36095629 6.58622659 -4.92879371 5.62759865 -2 5 C-2 3.68 -2 2.36 -2 1 C-1.34 0.67 -0.68 0.34 0 0 Z " fill="#4D9ECB" transform="translate(141,117)"/>
<path d="M0 0 C3.98175544 2.10148204 6.35039045 4.36905358 9 8 C7.35 8 5.7 8 4 8 C4 7.01 4 6.02 4 5 C3.01 5.33 2.02 5.66 1 6 C0.4465236 3.92446352 0 2.15634036 0 0 Z " fill="#E66134" transform="translate(544,63)"/>
<path d="M0 0 C0.66 0.33 1.32 0.66 2 1 C1.67 2.32 1.34 3.64 1 5 C0.34 5 -0.32 5 -1 5 C-1 7.31 -1 9.62 -1 12 C-1.99 12.33 -2.98 12.66 -4 13 C-3.71682074 11.39431334 -3.42312209 9.79047953 -3.125 8.1875 C-2.96257812 7.29417969 -2.80015625 6.40085937 -2.6328125 5.48046875 C-2 3 -2 3 0 0 Z " fill="#4DA1CC" transform="translate(106,31)"/>
<path d="M0 0 C4.82675589 2.41337795 7.69984002 5.86062408 11 10 C9.68 10 8.36 10 7 10 C6.7525 9.195625 6.505 8.39125 6.25 7.5625 C5.27761141 4.828919 5.27761141 4.828919 2.875 4.1875 C2.25625 4.125625 1.6375 4.06375 1 4 C0.67 2.68 0.34 1.36 0 0 Z " fill="#E16C44" transform="translate(500,343)"/>
<path d="M0 0 C0.33 0 0.66 0 1 0 C2.35384615 6.4 2.35384615 6.4 0.5625 9.4375 C0.046875 9.953125 -0.46875 10.46875 -1 11 C-3.475 10.01 -3.475 10.01 -6 9 C-4.7934375 7.88625 -4.7934375 7.88625 -3.5625 6.75 C-1.23011409 4.24695171 -0.36465606 3.2819045 0 0 Z " fill="#4AA4D1" transform="translate(100,49)"/>
<path d="M0 0 C-0.33 2.31 -0.66 4.62 -1 7 C-0.34 7.33 0.32 7.66 1 8 C0.01 8 -0.98 8 -2 8 C-4.1875 5.5 -4.1875 5.5 -6 3 C-2.25 0 -2.25 0 0 0 Z " fill="#EA6634" transform="translate(251,272)"/>
<path d="M0 0 C1.31622874 3.94868623 0.30180315 5.35071376 -1.3125 9.125 C-1.76238281 10.20007813 -2.21226562 11.27515625 -2.67578125 12.3828125 C-4 15 -4 15 -6 16 C-4.73130765 10.07943568 -2.86034565 5.33931188 0 0 Z " fill="#DF6843" transform="translate(570,235)"/>
<path d="M0 0 C0.66 0 1.32 0 2 0 C2.33 1.32 2.66 2.64 3 4 C3.66 4 4.32 4 5 4 C5 5.65 5 7.3 5 9 C5.66 9 6.32 9 7 9 C8.09658936 12.28976808 7.79953138 13.71303767 7 17 C6.67 17 6.34 17 6 17 C5.81824219 16.35933594 5.63648438 15.71867188 5.44921875 15.05859375 C3.93729955 9.85604103 2.24999329 4.92855673 0 0 Z " fill="#DF653B" transform="translate(244,119)"/>
<path d="M0 0 C0 3 0 3 -1 4.625 C-4.13796443 6.78235055 -7.23442808 6.69134656 -11 7 C-7.54319097 4.23455278 -3.85658398 2.15078722 0 0 Z " fill="#4198CA" transform="translate(50,82)"/>
<path d="M0 0 C0.99 0 1.98 0 3 0 C1.50902342 3.7952131 -0.75700849 5.61042731 -4 8 C-4.33 6.35 -4.66 4.7 -5 3 C-4.01 2.67 -3.02 2.34 -2 2 C-1.34 2.33 -0.68 2.66 0 3 C0 2.01 0 1.02 0 0 Z " fill="#3C9BCC" transform="translate(95,25)"/>
<path d="M0 0 C3.65316671 1.24976756 4.78065836 1.67098753 7 5 C7.125 8.1875 7.125 8.1875 7 11 C6.01 11.495 6.01 11.495 5 12 C4.34 9.03 3.68 6.06 3 3 C2.34 3 1.68 3 1 3 C0.67 2.01 0.34 1.02 0 0 Z " fill="#3D96C2" transform="translate(93,12)"/>
<path d="M0 0 C-0.33 1.32 -0.66 2.64 -1 4 C-1.66 4 -2.32 4 -3 4 C-3 6.97 -3 9.94 -3 13 C-5 11 -5 11 -5.3125 7.625 C-4.99140862 3.90033997 -4.41263344 0 0 0 Z " fill="#4B9CC6" transform="translate(48,13)"/>
<path d="M0 0 C3.63559661 3.43361902 6.36113346 6.7973607 9 11 C8.67 11.66 8.34 12.32 8 13 C5 9.25 5 9.25 5 7 C3.68 6.67 2.36 6.34 1 6 C0.67 4.02 0.34 2.04 0 0 Z " fill="#DF6B48" transform="translate(315,254)"/>
<path d="M0 0 C9.59453303 5.0022779 9.59453303 5.0022779 13 9 C11.35 8.67 9.7 8.34 8 8 C8 7.34 8 6.68 8 6 C7.236875 5.896875 6.47375 5.79375 5.6875 5.6875 C2.81583516 4.95288806 1.76957906 4.3283935 0 2 C0 1.34 0 0.68 0 0 Z " fill="#DF6C47" transform="translate(296,239)"/>
<path d="M0 0 C3.35435922 1.38801071 5.11290303 2.88629 7 6 C7 6.99 7 7.98 7 9 C4.69 8.67 2.38 8.34 0 8 C1.32 7.67 2.64 7.34 4 7 C2.6910428 3.87802522 2.6910428 3.87802522 0 2 C0 1.34 0 0.68 0 0 Z " fill="#E0744E" transform="translate(579,417)"/>
<path d="M0 0 C0.86625 0.33 1.7325 0.66 2.625 1 C5.95718275 1.98731341 8.55159538 2.16420974 12 2 C11.67 2.99 11.34 3.98 11 5 C7.50765756 5.09978121 4.40562852 4.77842938 1 4 C0.67 2.68 0.34 1.36 0 0 Z " fill="#E15B37" transform="translate(42,176)"/>
<path d="M0 0 C1.5067748 2.79738782 2.48224115 5.40322432 3.1875 8.5 C3.36667969 9.2528125 3.54585937 10.005625 3.73046875 10.78125 C4.01801942 13.14833379 3.72248395 14.74544015 3 17 C0.4084738 11.06108578 -0.40368295 6.45892714 0 0 Z " fill="#E06743" transform="translate(575,113)"/>
<path d="M0 0 C-0.33 1.32 -0.66 2.64 -1 4 C-1.639375 4.103125 -2.27875 4.20625 -2.9375 4.3125 C-3.618125 4.539375 -4.29875 4.76625 -5 5 C-5.33 5.99 -5.66 6.98 -6 8 C-6.6875 6.1875 -6.6875 6.1875 -7 4 C-5.0527781 1.49642898 -3.25622199 0 0 0 Z " fill="#449FD2" transform="translate(9,106)"/>
<path d="M0 0 C5.75 1.875 5.75 1.875 8 3 C8.73075648 5.3140622 9.40138258 7.64828869 10 10 C2.51708428 3.84965831 2.51708428 3.84965831 0 0 Z " fill="#E0633A" transform="translate(444,373)"/>
<path d="M0 0 C0.33 0 0.66 0 1 0 C1.08131463 1.43655854 1.13933559 2.8744483 1.1875 4.3125 C1.22230469 5.11300781 1.25710937 5.91351563 1.29296875 6.73828125 C0.93801608 9.47851584 0.10633718 10.29171079 -2 12 C-2.66 11.67 -3.32 11.34 -4 11 C-2.68 7.37 -1.36 3.74 0 0 Z " fill="#E77450" transform="translate(254,338)"/>
<path d="M0 0 C0.33 0.66 0.66 1.32 1 2 C-3.29 2 -7.58 2 -12 2 C-8.21794335 -1.78205665 -4.94743421 -1.00781067 0 0 Z " fill="#58A6CF" transform="translate(139,37)"/>
<path d="M0 0 C0.66 0.33 1.32 0.66 2 1 C-0.97 4.96 -0.97 4.96 -4 9 C-4.66 8.01 -5.32 7.02 -6 6 C-4.60804085 3.2160817 -2.84424221 3.02101003 0 2 C0 1.34 0 0.68 0 0 Z " fill="#E8663E" transform="translate(559,257)"/>
<path d="M0 0 C2.04119788 1.61594832 4.04072937 3.2856382 6 5 C6 5.66 6 6.32 6 7 C1.125 6.125 1.125 6.125 0 5 C-0.04063832 3.33382885 -0.042721 1.66611905 0 0 Z " fill="#539FCC" transform="translate(90,127)"/>
<path d="M0 0 C2.00993705 3.01490557 2.72623341 5.2149927 3.625 8.6875 C3.88539063 9.68136719 4.14578125 10.67523438 4.4140625 11.69921875 C4.60742188 12.45847656 4.80078125 13.21773437 5 14 C2.53303195 11.88827535 1.14881742 10.62961216 0.390625 7.421875 C0.34421875 6.54015625 0.2978125 5.6584375 0.25 4.75 C0.19328125 3.85796875 0.1365625 2.9659375 0.078125 2.046875 C0.05234375 1.37140625 0.0265625 0.6959375 0 0 Z " fill="#E36D4C" transform="translate(570,98)"/>
<path d="M0 0 C0.99 0 1.98 0 3 0 C3 0.66 3 1.32 3 2 C4.98 2.66 6.96 3.32 9 4 C8.67 4.99 8.34 5.98 8 7 C4.2047869 5.50902342 2.38957269 3.24299151 0 0 Z " fill="#E36842" transform="translate(485,413)"/>
<path d="M0 0 C2.31 1.98 4.62 3.96 7 6 C4.53721199 7.231394 2.7204945 7.07159196 0 7 C0 4.69 0 2.38 0 0 Z " fill="#E7623B" transform="translate(530,371)"/>
<path d="M0 0 C0.99 0.33 1.98 0.66 3 1 C3.33 3.97 3.66 6.94 4 10 C0.48283697 6.48283697 0.45323837 4.80432667 0 0 Z " fill="#E76D3A" transform="translate(255,291)"/>
<path d="M0 0 C0.33 0 0.66 0 1 0 C1.32613618 4.67461851 0.70582788 7.16674383 -2 11 C-2.99 10.67 -3.98 10.34 -5 10 C-4.34 10 -3.68 10 -3 10 C-3 8.35 -3 6.7 -3 5 C-2.01 5 -1.02 5 0 5 C0 3.35 0 1.7 0 0 Z " fill="#4D9DC9" transform="translate(79,150)"/>
<path d="M0 0 C3.37503669 1.1858237 5.64722731 2.27573689 8 5 C5.36 4.67 2.72 4.34 0 4 C0 2.68 0 1.36 0 0 Z " fill="#E4663C" transform="translate(81,174)"/>
<path d="M0 0 C0.33 0.66 0.66 1.32 1 2 C0.22265625 4.1640625 0.22265625 4.1640625 -0.9375 6.625 C-1.31777344 7.44226563 -1.69804687 8.25953125 -2.08984375 9.1015625 C-2.39019531 9.72804688 -2.69054687 10.35453125 -3 11 C-4.06192476 7.73635123 -4.07454186 7.17280159 -2.625 3.8125 C-1 1 -1 1 0 0 Z " fill="#DE5F37" transform="translate(325,376)"/>
<path d="M0 0 C1.32 0 2.64 0 4 0 C4 0.99 4 1.98 4 3 C4.66 3 5.32 3 6 3 C6 3.99 6 4.98 6 6 C6.66 6.33 7.32 6.66 8 7 C7.01 7 6.02 7 5 7 C3.61328125 5.46875 3.61328125 5.46875 2.3125 3.5 C1.87550781 2.8503125 1.43851562 2.200625 0.98828125 1.53125 C0.49908203 0.77328125 0.49908203 0.77328125 0 0 Z " fill="#DE623D" transform="translate(368,297)"/>
<path d="M0 0 C3.55780196 0.60990891 6.6828589 1.5783681 10 3 C10 3.99 10 4.98 10 6 C6.00499382 4.6302836 3.19990508 2.74277578 0 0 Z " fill="#E76F42" transform="translate(483,110)"/>
<path d="M0 0 C3.72433382 1.2125738 7.37802806 2.50859979 11 4 C11 4.33 11 4.66 11 5 C9.54052295 4.93993922 8.08220728 4.8511311 6.625 4.75 C5.81289062 4.70359375 5.00078125 4.6571875 4.1640625 4.609375 C2 4 2 4 0.7109375 1.953125 C0.47632812 1.30859375 0.24171875 0.6640625 0 0 Z " fill="#469EC9" transform="translate(98,86)"/>
<path d="M0 0 C0.66 0.33 1.32 0.66 2 1 C0.9375 3.4375 0.9375 3.4375 -1 6 C-4.6875 6.8125 -4.6875 6.8125 -8 7 C-5.53058944 4.40062046 -2.81939117 2.20979308 0 0 Z " fill="#E27253" transform="translate(163,47)"/>
<path d="M0 0 C1.32 0 2.64 0 4 0 C4 1.98 4 3.96 4 6 C2.68 6 1.36 6 0 6 C0 4.02 0 2.04 0 0 Z " fill="#379AD3" transform="translate(18,40)"/>
<path d="M0 0 C2.97 1.98 2.97 1.98 6 4 C5.67 4.66 5.34 5.32 5 6 C3.68 6 2.36 6 1 6 C0.67 4.02 0.34 2.04 0 0 Z " fill="#E76E47" transform="translate(567,405)"/>
<path d="M0 0 C2.31 1.98 4.62 3.96 7 6 C6.01 6.495 6.01 6.495 5 7 C4.01 6.67 3.02 6.34 2 6 C2 5.34 2 4.68 2 4 C1.34 4 0.68 4 0 4 C0 2.68 0 1.36 0 0 Z " fill="#E36943" transform="translate(469,313)"/>
<path d="M0 0 C3.53600465 1.91135386 5.78972846 3.62642766 8 7 C7.4225 6.690625 6.845 6.38125 6.25 6.0625 C4.15705816 5.07416636 2.25464725 4.4831387 0 4 C0 2.68 0 1.36 0 0 Z " fill="#DD6136" transform="translate(455,301)"/>
<path d="M0 0 C0.33 0.99 0.66 1.98 1 3 C-0.4375 5.6875 -0.4375 5.6875 -2 8 C-3.32 7.67 -4.64 7.34 -6 7 C-4.02 4.69 -2.04 2.38 0 0 Z " fill="#E16C4B" transform="translate(497,218)"/>
<path d="M0 0 C-1.32 0.33 -2.64 0.66 -4 1 C-4.33 2.32 -4.66 3.64 -5 5 C-5.66 4.34 -6.32 3.68 -7 3 C-7 2.01 -7 1.02 -7 0 C-3.86650268 -1.04449911 -3.01031744 -0.93423645 0 0 Z " fill="#4299C5" transform="translate(83,82)"/>
<path d="M0 0 C2.97 0.495 2.97 0.495 6 1 C6 2.65 6 4.3 6 6 C3.97945196 4.35830472 1.97956942 2.69088222 0 1 C0 0.67 0 0.34 0 0 Z " fill="#E65F3B" transform="translate(382,312)"/>
<path d="M0 0 C1.32 0.33 2.64 0.66 4 1 C4.33 3.31 4.66 5.62 5 8 C4.34 8 3.68 8 3 8 C0 2.25 0 2.25 0 0 Z " fill="#E27C51" transform="translate(251,282)"/>
<path d="M0 0 C0 0.66 0 1.32 0 2 C-5.41538462 3.23076923 -5.41538462 3.23076923 -8.375 2.0625 C-8.91125 1.711875 -9.4475 1.36125 -10 1 C-6.59437148 0.22157062 -3.49234244 -0.09978121 0 0 Z " fill="#E95322" transform="translate(238,264)"/>
<path d="M0 0 C0.66 0.66 1.32 1.32 2 2 C1.625 4.125 1.625 4.125 1 6 C-1.64 6 -4.28 6 -7 6 C-7 5.67 -7 5.34 -7 5 C-5.02 5 -3.04 5 -1 5 C-0.67 3.35 -0.34 1.7 0 0 Z " fill="#429FCF" transform="translate(117,130)"/>
<path d="M0 0 C0.66 0 1.32 0 2 0 C2 1.65 2 3.3 2 5 C-0.31 4.67 -2.62 4.34 -5 4 C-4.67 3.34 -4.34 2.68 -4 2 C-2.02 2.495 -2.02 2.495 0 3 C0 2.01 0 1.02 0 0 Z " fill="#60B1D5" transform="translate(69,71)"/>
<path d="M0 0 C2.31 0.33 4.62 0.66 7 1 C7 1.99 7 2.98 7 4 C6.34 3.67 5.68 3.34 5 3 C4.67 3.66 4.34 4.32 4 5 C4 4.34 4 3.68 4 3 C2.68 2.34 1.36 1.68 0 1 C0 0.67 0 0.34 0 0 Z " fill="#2E95CB" transform="translate(54,63)"/>
<path d="M0 0 C1.32 0.99 2.64 1.98 4 3 C3.67 4.32 3.34 5.64 3 7 C2.34 7 1.68 7 1 7 C0.67 4.69 0.34 2.38 0 0 Z " fill="#3F9ED5" transform="translate(58,14)"/>
<path d="M0 0 C2.97 0.495 2.97 0.495 6 1 C6.33 2.98 6.66 4.96 7 7 C5.83040013 6.02433888 4.66438823 5.044375 3.5 4.0625 C2.8503125 3.51722656 2.200625 2.97195313 1.53125 2.41015625 C1.0259375 1.94480469 0.520625 1.47945313 0 1 C0 0.67 0 0.34 0 0 Z " fill="#DF6845" transform="translate(401,331)"/>
<path d="M0 0 C0.99 0.33 1.98 0.66 3 1 C3 1.66 3 2.32 3 3 C3.99 3.33 4.98 3.66 6 4 C3 5 3 5 0.8125 4.0625 C0.214375 3.711875 -0.38375 3.36125 -1 3 C-0.67 2.01 -0.34 1.02 0 0 Z " fill="#E46E43" transform="translate(481,325)"/>
<path d="M0 0 C0.66 0.33 1.32 0.66 2 1 C1.1875 4.4375 1.1875 4.4375 0 8 C-0.99 8.33 -1.98 8.66 -3 9 C-2.01 6.03 -1.02 3.06 0 0 Z " fill="#E3623C" transform="translate(249,181)"/>
<path d="M0 0 C1.485 0.99 1.485 0.99 3 2 C3.40843923 4.71203652 3.13336867 7.2437142 3 10 C0.70366176 6.55549263 0.45983515 4.06187717 0 0 Z " fill="#5FABCE" transform="translate(102,117)"/>
</svg>
